<?xml version="1.0" encoding="UTF-8" standalone="no"?>
<!-- Created with Inkscape (http://www.inkscape.org/) -->

<svg
   width="131.91373mm"
   height="27.239809mm"
   viewBox="0 0 131.91373 27.239809"
   version="1.1"
   id="svg1"
   xml:space="preserve"
   inkscape:version="1.3.2 (091e20e, 2023-11-25)"
   sodipodi:docname="bluescope3.svg"
   xmlns:inkscape="http://www.inkscape.org/namespaces/inkscape"
   xmlns:sodipodi="http://sodipodi.sourceforge.net/DTD/sodipodi-0.dtd"
   xmlns:xlink="http://www.w3.org/1999/xlink"
   xmlns="http://www.w3.org/2000/svg"
   xmlns:svg="http://www.w3.org/2000/svg"><sodipodi:namedview
     id="namedview1"
     pagecolor="#e5e5e5"
     bordercolor="#000000"
     borderopacity="0.25"
     inkscape:showpageshadow="2"
     inkscape:pageopacity="0.0"
     inkscape:pagecheckerboard="0"
     inkscape:deskcolor="#d1d1d1"
     inkscape:document-units="mm"
     inkscape:zoom="2"
     inkscape:cx="277.25"
     inkscape:cy="125.25"
     inkscape:window-width="2560"
     inkscape:window-height="1355"
     inkscape:window-x="0"
     inkscape:window-y="0"
     inkscape:window-maximized="1"
     inkscape:current-layer="layer1"
     inkscape:export-bgcolor="#ffffff00" /><defs
     id="defs1"><linearGradient
       id="linearGradient30"
       inkscape:collect="always"><stop
         style="stop-color:#022c71;stop-opacity:1;"
         offset="0.28693962"
         id="stop30" /><stop
         style="stop-color:#138bd0;stop-opacity:1;"
         offset="1"
         id="stop26" /></linearGradient><linearGradient
       id="linearGradient60"
       inkscape:collect="always"><stop
         style="stop-color:#ffffff;stop-opacity:1;"
         offset="0"
         id="stop62" /><stop
         style="stop-color:#ffffff;stop-opacity:0.96470588;"
         offset="1"
         id="stop61" /></linearGradient><linearGradient
       id="linearGradient57"
       inkscape:collect="always"><stop
         style="stop-color:#000000;stop-opacity:0;"
         offset="0"
         id="stop57" /><stop
         style="stop-color:#dadada;stop-opacity:0;"
         offset="0.90426725"
         id="stop60" /><stop
         style="stop-color:#ffffff;stop-opacity:1;"
         offset="0.90765369"
         id="stop59" /><stop
         style="stop-color:#bbfcfe;stop-opacity:1;"
         offset="1"
         id="stop58" /></linearGradient><linearGradient
       id="linearGradient1"
       inkscape:collect="always"><stop
         style="stop-color:#1363ab;stop-opacity:1;"
         offset="0"
         id="stop4" /><stop
         style="stop-color:#022c71;stop-opacity:1;"
         offset="0.71306038"
         id="stop1" /></linearGradient><linearGradient
       id="linearGradient95"
       inkscape:collect="always"><stop
         style="stop-color:#02215b;stop-opacity:1;"
         offset="0"
         id="stop92" /><stop
         style="stop-color:#02215b;stop-opacity:1;"
         offset="0.96484327"
         id="stop93" /><stop
         style="stop-color:#0080a5;stop-opacity:1;"
         offset="0.98000002"
         id="stop94" /><stop
         style="stop-color:#11aaea;stop-opacity:1;"
         offset="1"
         id="stop95" /></linearGradient><linearGradient
       id="linearGradient90"
       inkscape:collect="always"><stop
         style="stop-color:#9afcfc;stop-opacity:1;"
         offset="0"
         id="stop88" /><stop
         style="stop-color:#3cfdff;stop-opacity:0.15686275;"
         offset="0.05831372"
         id="stop89" /><stop
         style="stop-color:#82feff;stop-opacity:0;"
         offset="1"
         id="stop90" /></linearGradient><linearGradient
       id="linearGradient84"
       inkscape:collect="always"><stop
         style="stop-color:#02215b;stop-opacity:1;"
         offset="0"
         id="stop85" /><stop
         style="stop-color:#02215b;stop-opacity:1;"
         offset="0.96484327"
         id="stop86" /><stop
         style="stop-color:#1586e1;stop-opacity:1;"
         offset="0.98000002"
         id="stop87" /><stop
         style="stop-color:#1586e2;stop-opacity:1;"
         offset="1"
         id="stop84" /></linearGradient><linearGradient
       id="linearGradient49"
       inkscape:collect="always"><stop
         style="stop-color:#82feff;stop-opacity:1;"
         offset="0"
         id="stop50" /><stop
         style="stop-color:#82feff;stop-opacity:0;"
         offset="1"
         id="stop51" /></linearGradient><linearGradient
       id="linearGradient46"
       inkscape:collect="always"><stop
         style="stop-color:#fbfbfb;stop-opacity:1;"
         offset="0"
         id="stop46" /><stop
         style="stop-color:#98feff;stop-opacity:0.15686275;"
         offset="0.05831372"
         id="stop49" /><stop
         style="stop-color:#82feff;stop-opacity:0;"
         offset="1"
         id="stop47" /></linearGradient><linearGradient
       id="linearGradient42"
       inkscape:collect="always"><stop
         style="stop-color:#38d6fa;stop-opacity:1;"
         offset="0"
         id="stop42" /><stop
         style="stop-color:#23b9f4;stop-opacity:1;"
         offset="1"
         id="stop43" /></linearGradient><inkscape:path-effect
       effect="fillet_chamfer"
       id="path-effect41"
       is_visible="true"
       lpeversion="1"
       nodesatellites_param="F,0,0,1,0,5.5033333,0,5 @ F,0,0,1,0,5.5033333,0,5 @ F,0,0,1,0,5.5033333,0,5 @ F,0,0,1,0,5.5033333,0,5"
       radius="20.8"
       unit="px"
       method="arc"
       mode="F"
       chamfer_steps="1"
       flexible="false"
       use_knot_distance="true"
       apply_no_radius="true"
       apply_with_radius="true"
       only_selected="false"
       hide_knots="false" /><inkscape:path-effect
       effect="fillet_chamfer"
       id="path-effect40"
       is_visible="true"
       lpeversion="1"
       nodesatellites_param="F,0,0,1,0,0,0,1 @ F,0,0,1,0,0,0,1 @ F,0,0,1,0,0,0,1 @ F,0,0,1,0,0,0,1"
       radius="0"
       unit="px"
       method="auto"
       mode="F"
       chamfer_steps="1"
       flexible="false"
       use_knot_distance="true"
       apply_no_radius="true"
       apply_with_radius="true"
       only_selected="false"
       hide_knots="false" /><inkscape:path-effect
       effect="fillet_chamfer"
       id="path-effect39"
       is_visible="true"
       lpeversion="1"
       nodesatellites_param="F,0,0,1,0,0,0,1 @ F,0,0,1,0,0,0,1 @ F,0,0,1,0,0,0,1 @ F,0,0,1,0,0,0,1"
       radius="0"
       unit="px"
       method="auto"
       mode="F"
       chamfer_steps="1"
       flexible="false"
       use_knot_distance="true"
       apply_no_radius="true"
       apply_with_radius="true"
       only_selected="false"
       hide_knots="false" /><inkscape:path-effect
       effect="fillet_chamfer"
       id="path-effect38"
       is_visible="true"
       lpeversion="1"
       nodesatellites_param="F,0,0,1,0,0,0,1 @ F,0,0,1,0,0,0,1 @ F,0,0,1,0,0,0,1 @ F,0,0,1,0,0,0,1"
       radius="0"
       unit="px"
       method="auto"
       mode="F"
       chamfer_steps="1"
       flexible="false"
       use_knot_distance="true"
       apply_no_radius="true"
       apply_with_radius="true"
       only_selected="false"
       hide_knots="false" /><inkscape:path-effect
       effect="fillet_chamfer"
       id="path-effect37"
       is_visible="true"
       lpeversion="1"
       nodesatellites_param="F,0,0,1,0,0,0,1 @ F,0,0,1,0,0,0,1 @ F,0,0,1,0,0,0,1 @ F,0,0,1,0,0,0,1"
       radius="0"
       unit="px"
       method="auto"
       mode="F"
       chamfer_steps="1"
       flexible="false"
       use_knot_distance="true"
       apply_no_radius="true"
       apply_with_radius="true"
       only_selected="false"
       hide_knots="false" /><inkscape:path-effect
       effect="fillet_chamfer"
       id="path-effect36"
       is_visible="true"
       lpeversion="1"
       nodesatellites_param="F,0,0,1,0,0,0,1 @ F,0,0,1,0,0,0,1 @ F,0,0,1,0,0,0,1 @ F,0,0,1,0,0,0,1"
       radius="0"
       unit="px"
       method="auto"
       mode="F"
       chamfer_steps="1"
       flexible="false"
       use_knot_distance="true"
       apply_no_radius="true"
       apply_with_radius="true"
       only_selected="false"
       hide_knots="false" /><inkscape:path-effect
       effect="fillet_chamfer"
       id="path-effect35"
       is_visible="true"
       lpeversion="1"
       nodesatellites_param="F,1,0,1,0,0.07,0,1 @ F,1,0,1,0,0.07,0,1 @ F,1,0,1,0,0.07,0,1 @ F,1,0,1,0,0.07,0,1"
       radius="7"
       unit="pc"
       method="auto"
       mode="F"
       chamfer_steps="1"
       flexible="true"
       use_knot_distance="true"
       apply_no_radius="true"
       apply_with_radius="true"
       only_selected="false"
       hide_knots="false" /><inkscape:path-effect
       effect="fillet_chamfer"
       id="path-effect34"
       is_visible="true"
       lpeversion="1"
       nodesatellites_param="F,0,0,1,0,1.3229167,0,1 @ F,0,0,1,0,1.3229167,0,1 @ F,0,0,1,0,1.3229167,0,1 @ F,0,0,1,0,1.3229167,0,1"
       radius="6"
       unit="px"
       method="auto"
       mode="F"
       chamfer_steps="1"
       flexible="false"
       use_knot_distance="true"
       apply_no_radius="true"
       apply_with_radius="true"
       only_selected="false"
       hide_knots="false" /><linearGradient
       id="linearGradient31"
       inkscape:collect="always"><stop
         style="stop-color:#d4f7fc;stop-opacity:1;"
         offset="0"
         id="stop31" /><stop
         style="stop-color:#67e8fc;stop-opacity:1;"
         offset="1"
         id="stop32" /></linearGradient><linearGradient
       id="linearGradient27"
       inkscape:collect="always"><stop
         style="stop-color:#1493de;stop-opacity:1;"
         offset="0"
         id="stop27" /><stop
         style="stop-color:#a2e8f3;stop-opacity:1;"
         offset="0.98264074"
         id="stop29" /><stop
         style="stop-color:#e7fafd;stop-opacity:1;"
         offset="0.98736531"
         id="stop28" /></linearGradient><linearGradient
       id="linearGradient22"
       inkscape:collect="always"><stop
         style="stop-color:#043a7f;stop-opacity:1;"
         offset="0.40861753"
         id="stop22" /><stop
         style="stop-color:#022c71;stop-opacity:1;"
         offset="1"
         id="stop23" /></linearGradient><linearGradient
       id="linearGradient19"
       inkscape:collect="always"><stop
         style="stop-color:#149de0;stop-opacity:1;"
         offset="0"
         id="stop19" /><stop
         style="stop-color:#1283c9;stop-opacity:1;"
         offset="1"
         id="stop20" /></linearGradient><linearGradient
       inkscape:collect="always"
       xlink:href="#linearGradient19"
       id="linearGradient20"
       x1="28.739918"
       y1="65.185417"
       x2="166.9799"
       y2="64.506508"
       gradientUnits="userSpaceOnUse"
       gradientTransform="translate(-3.5047168,-8.5163712)" /><linearGradient
       inkscape:collect="always"
       xlink:href="#linearGradient22"
       id="linearGradient23"
       x1="-0.35669699"
       y1="82.499878"
       x2="165.35645"
       y2="82.499878"
       gradientUnits="userSpaceOnUse" /><linearGradient
       inkscape:collect="always"
       xlink:href="#linearGradient27"
       id="linearGradient28"
       x1="83.19416"
       y1="121.23959"
       x2="83.19416"
       y2="67.617676"
       gradientUnits="userSpaceOnUse"
       spreadMethod="repeat"
       gradientTransform="translate(0.84733856,-1.7580862)" /><linearGradient
       inkscape:collect="always"
       xlink:href="#linearGradient31"
       id="linearGradient32"
       x1="76.40316"
       y1="47.268856"
       x2="76.571556"
       y2="74.107529"
       gradientUnits="userSpaceOnUse"
       gradientTransform="translate(-4.3710744,-5.306275)" /><linearGradient
       inkscape:collect="always"
       xlink:href="#linearGradient42"
       id="linearGradient43"
       x1="89.130463"
       y1="2.0917807"
       x2="83.993034"
       y2="18.175194"
       gradientUnits="userSpaceOnUse"
       gradientTransform="matrix(1,0,0,0.9599924,-0.86211275,28.353742)" /><linearGradient
       inkscape:collect="always"
       xlink:href="#linearGradient46"
       id="linearGradient47"
       x1="73.919975"
       y1="53.207348"
       x2="73.919975"
       y2="58.138172"
       gradientUnits="userSpaceOnUse"
       gradientTransform="matrix(0.99563244,0,0,1.0088281,0.27620283,-0.52229774)" /><linearGradient
       inkscape:collect="always"
       xlink:href="#linearGradient49"
       id="linearGradient51"
       x1="80.668556"
       y1="2.8384192"
       x2="80.668556"
       y2="12.342548"
       gradientUnits="userSpaceOnUse"
       gradientTransform="translate(-0.86858275,28.011117)" /><linearGradient
       inkscape:collect="always"
       xlink:href="#linearGradient90"
       id="linearGradient52"
       gradientUnits="userSpaceOnUse"
       x1="73.919975"
       y1="53.207348"
       x2="73.919975"
       y2="58.138172"
       gradientTransform="matrix(1,0,0,0.99346511,20.399195,49.188465)" /><linearGradient
       inkscape:collect="always"
       xlink:href="#linearGradient46"
       id="linearGradient53"
       gradientUnits="userSpaceOnUse"
       x1="73.919975"
       y1="53.207348"
       x2="73.919975"
       y2="58.138172"
       gradientTransform="matrix(1,0,0,0.99106024,33.623293,24.905303)" /><linearGradient
       inkscape:collect="always"
       xlink:href="#linearGradient84"
       id="linearGradient85"
       x1="43.085602"
       y1="111.70319"
       x2="43.085602"
       y2="101.85186"
       gradientUnits="userSpaceOnUse" /><linearGradient
       inkscape:collect="always"
       xlink:href="#linearGradient95"
       id="linearGradient92"
       gradientUnits="userSpaceOnUse"
       x1="135.80626"
       y1="87.404442"
       x2="135.80626"
       y2="77.553108" /><linearGradient
       inkscape:collect="always"
       xlink:href="#linearGradient1"
       id="linearGradient2"
       x1="174.32053"
       y1="84.13089"
       x2="543.3609"
       y2="84.13089"
       gradientUnits="userSpaceOnUse"
       gradientTransform="matrix(0.36668864,0,0,0.36668864,-63.378469,-16.774013)" /><linearGradient
       inkscape:collect="always"
       xlink:href="#linearGradient95"
       id="linearGradient5"
       gradientUnits="userSpaceOnUse"
       x1="135.80626"
       y1="87.404442"
       x2="135.80626"
       y2="77.553108" /><linearGradient
       inkscape:collect="always"
       xlink:href="#linearGradient84"
       id="linearGradient6"
       gradientUnits="userSpaceOnUse"
       x1="43.085602"
       y1="111.70319"
       x2="43.085602"
       y2="101.85186" /><radialGradient
       inkscape:collect="always"
       xlink:href="#linearGradient57"
       id="radialGradient58"
       cx="82.499878"
       cy="82.499878"
       fx="82.499878"
       fy="82.499878"
       r="82.64032"
       gradientUnits="userSpaceOnUse"
       gradientTransform="matrix(0.25964918,0.96260088,-0.96687694,0.2608026,140.84608,-18.43076)" /><linearGradient
       inkscape:collect="always"
       xlink:href="#linearGradient60"
       id="linearGradient62"
       x1="48.091053"
       y1="23.12915"
       x2="151.85204"
       y2="23.12915"
       gradientUnits="userSpaceOnUse"
       gradientTransform="translate(0.19999999,0.20000036)" /><linearGradient
       inkscape:collect="always"
       xlink:href="#linearGradient30"
       id="linearGradient25"
       gradientUnits="userSpaceOnUse"
       gradientTransform="matrix(0.36668864,0,0,0.36668864,40.592445,-16.921177)"
       x1="174.32053"
       y1="84.13089"
       x2="543.3609"
       y2="84.13089" /></defs><g
     inkscape:label="Layer 1"
     inkscape:groupmode="layer"
     id="layer1"
     transform="translate(2.0342227e-4,2.0308793e-4)"><text
       xml:space="preserve"
       style="font-size:28.4592px;fill:url(#linearGradient2);stroke:#bbfcfe;stroke-width:0.262;stroke-dasharray:none;stroke-opacity:1;paint-order:fill markers stroke"
       x="-2.2176433"
       y="21.475197"
       id="text35"
       inkscape:label="Title"
       inkscape:export-filename="bluescope_v2.png"
       inkscape:export-xdpi="96"
       inkscape:export-ydpi="96"><tspan
         id="tspan35"
         style="font-style:normal;font-variant:normal;font-weight:normal;font-stretch:normal;font-size:28.4592px;font-family:Roboto;-inkscape-font-specification:Roboto;fill:url(#linearGradient2);fill-opacity:1;stroke:#bbfcfe;stroke-width:0.262;stroke-dasharray:none;stroke-opacity:1"
         x="-2.2176433"
         y="21.475197"
         sodipodi:role="line">BlueSc </tspan></text><text
       xml:space="preserve"
       style="font-size:28.4592px;fill:url(#linearGradient25);stroke:#bbfcfe;stroke-width:0.261593;stroke-dasharray:none;stroke-opacity:1;paint-order:fill markers stroke"
       x="101.75327"
       y="21.328035"
       id="text35-4"
       inkscape:label="Title"
       inkscape:export-filename="bluescope_v2.png"
       inkscape:export-xdpi="96"
       inkscape:export-ydpi="96"><tspan
         id="tspan35-8"
         style="font-style:normal;font-variant:normal;font-weight:normal;font-stretch:normal;font-size:28.4592px;font-family:Roboto;-inkscape-font-specification:Roboto;fill:url(#linearGradient25);fill-opacity:1;stroke:#bbfcfe;stroke-width:0.261593;stroke-dasharray:none;stroke-opacity:1"
         x="101.75327"
         y="21.328035"
         sodipodi:role="line">pe</tspan></text><g
       id="g35"
       transform="matrix(0.09566531,0,0,0.09566531,86.084868,5.9574082)"
       inkscape:export-filename="g4.png"
       inkscape:export-xdpi="96"
       inkscape:export-ydpi="96"
       style="stroke-width:0.713394;stroke-dasharray:none"
       inkscape:label="Scope"><path
         d="M 82.499874,8.5002563 C 41.631101,8.5004674 8.5004674,41.631101 8.5002563,82.499874 8.5001812,123.36885 41.630899,156.4998 82.499874,156.50001 123.36905,156.50009 156.50009,123.36905 156.50001,82.499874 156.4998,41.630899 123.36885,8.5001812 82.499874,8.5002563 Z"
         style="fill:#dafef6;stroke-width:0.713394;stroke-dasharray:none;paint-order:fill markers stroke"
         id="path7"
         sodipodi:nodetypes="ccccc"
         inkscape:label="inner_ring"
         inkscape:export-filename="path21.png"
         inkscape:export-xdpi="96"
         inkscape:export-ydpi="96" /><g
         id="g14"
         style="stroke-width:0.713394;stroke-dasharray:none"><path
           id="path8"
           style="fill:url(#linearGradient20);stroke-width:0.713394;stroke-dasharray:none;paint-order:fill markers stroke"
           d="M 114.2545,19.816266 C 80.058324,19.844388 50.720626,51.97198 37.191091,59.445974 L 25.288358,94.129558 100.98193,86.163637 154.98586,61.118654 c -2.03981,-13.8302 -8.77155,-20.093864 -8.77155,-20.093864 l 6.57996,-1.904276 -11.61204,-8.672147 c 0,0 -9.47791,-10.646451 -26.92773,-10.632101 z"
           sodipodi:nodetypes="scccccccs" /><path
           id="path9"
           d="m 55.860377,31.100231 h 50.860903 c 5.74802,6e-6 5.74149,9.679212 0,9.654619 H 57.712547 c -2.4279,-3e-6 -4.39609,-2.157418 -4.39609,-4.818727 0.009,-2.650943 0.12548,-4.846252 2.54392,-4.835892 z"
           style="display:none;fill:url(#linearGradient43);fill-opacity:1;stroke:url(#linearGradient51);stroke-width:0.713394;stroke-linecap:butt;stroke-miterlimit:3.9;stroke-dasharray:none;stroke-opacity:1;paint-order:fill markers stroke"
           sodipodi:nodetypes="cccccc"
           inkscape:label="rect_trans" /><circle
           style="display:none;fill:#02215b;fill-opacity:1;stroke:none;stroke-width:0.713394;stroke-dasharray:none;stroke-opacity:1;paint-order:fill markers stroke"
           id="circle9"
           cx="55.718468"
           cy="35.831253"
           r="4.9019608" /><path
           style="fill:#67e8fc;fill-opacity:1;stroke:url(#linearGradient32);stroke-width:0.713394;stroke-dasharray:none;stroke-opacity:1;paint-order:fill markers stroke"
           d="M 5.6387935,57.68445 C 26.583416,49.00885 28.747618,39.217378 51.357647,39.217378 c 22.610027,0 32.601545,13.996365 45.502701,15.678007 19.837602,2.585796 54.850212,1.955851 54.850212,1.955851 l 2.53268,9.812594 -51.19423,9.590514 L 1.1317205,73.15134 Z"
           id="path10"
           sodipodi:nodetypes="cssccccc" /><path
           style="fill:url(#linearGradient28);fill-opacity:1;stroke-width:0.713394;stroke-dasharray:none;paint-order:fill markers stroke"
           d="M 155.72559,65.905153 H 7.3854342 L 5.1861385,86.112602 10.241655,107.18884 44.461782,118.22409 118.52496,97.785256 Z"
           id="path11" /><path
           id="path12"
           style="fill:#1493de;fill-opacity:1;stroke-width:0.713394;stroke-dasharray:none;paint-order:fill markers stroke"
           d="M 128.28434,66.025241 C 103.12213,68.213303 91.700497,82.145389 81.450909,87.702123 51.185486,104.11029 38.480899,106.43563 3.9919989,89.156475 c 0.8060788,6.876162 1.6335804,15.329565 3.7900659,22.452905 2.3485922,7.75791 9.2925572,19.4878 17.6862592,25.77982 8.393702,6.29203 16.13292,14.53152 26.029419,17.81752 9.8965,3.28599 20.455524,7.04539 33.420183,5.26996 12.964653,-1.77544 46.846694,-18.78573 54.116074,-23.07715 7.26938,-4.29141 18.94353,-38.574986 20.11919,-60.503275 0.21561,-4.021493 0.0351,-7.622322 -0.39481,-10.835514 -4.85888,-0.086 -25.93661,-0.430067 -30.47404,-0.0355 z"
           sodipodi:nodetypes="sscsssssscs" /><path
           id="path13"
           style="fill:#0359b2;fill-opacity:1;stroke-width:0.713394;stroke-dasharray:none;paint-order:fill markers stroke"
           d="m 10.457536,112.44055 c 1.056689,2.95354 0.717558,3.77621 0.776991,3.97254 1.396042,4.61142 4.699189,3.67459 8.681931,9.1164 2.226872,2.7102 4.407712,6.91905 7.005616,8.86648 8.393701,6.29203 16.382158,12.82016 26.278658,16.10615 9.8965,3.286 32.40331,8.99193 45.367967,7.2165 12.964651,-1.77544 34.898901,-20.73175 42.168291,-25.02316 3.07558,-1.81565 6.91737,-9.12942 10.44122,-18.47536 -27.06306,19.65655 -37.36046,4.61601 -58.317386,4.61601 -19.96224,0 -45.117882,19.10422 -82.403288,-6.39556 z"
           sodipodi:nodetypes="cccsssscsc" /><path
           id="path14"
           style="fill:#003278;fill-opacity:1;stroke-width:0.713394;stroke-dasharray:none;paint-order:fill markers stroke"
           d="m 137.06011,135.36281 c -23.30844,20.94381 -39.563285,8.57002 -63.05623,8.57002 -19.019553,0 -15.86743,10.97594 -50.148077,-7.12241 0.642883,2.19869 16.656324,16.64397 26.980357,20.07193 7.654613,2.5416 14.171987,4.08222 23.425841,4.41013 l 21.016628,0.74143 c 14.739751,-5.59966 33.274041,-12.89698 39.352901,-16.38245 z"
           sodipodi:nodetypes="cscscccc" /></g><g
         id="g34"
         transform="translate(-0.86858117,28.011117)"
         style="stroke-width:0.713394;stroke-dasharray:none"><path
           id="path15"
           d="m 24.416081,53.245228 h 74.426493 c 2.417276,3e-6 4.376886,2.176464 4.376886,4.86126 -0.009,2.674353 -1.96902,4.833871 -4.376886,4.823419 H 24.416081 c -2.417297,-1.1e-5 -4.37689,-2.176466 -4.37689,-4.861271 0.0089,-2.674346 1.969012,-4.833859 4.37689,-4.823408 z m 3.220592,-0.05558 h 74.426487 c 2.41728,3e-6 4.37689,2.176465 4.37689,4.861268 -0.009,2.674342 -1.96901,4.833861 -4.37689,4.823408 H 27.636673 c -2.417296,0 -4.37689,-2.176465 -4.37689,-4.861268 0.0089,-2.674345 1.969013,-4.833858 4.37689,-4.823408 z"
           style="display:none;fill:#bff6fd;fill-opacity:0.473098;stroke:url(#linearGradient47);stroke-width:0.713394;stroke-linecap:butt;stroke-miterlimit:3.9;stroke-dasharray:none;stroke-opacity:1;paint-order:fill markers stroke"
           sodipodi:nodetypes="cccccccccccscc"
           inkscape:label="rect_trans" /><path
           id="path16"
           d="m 44.644968,102.13719 h 74.752982 c 2.42788,0 4.39608,2.14331 4.39608,4.78722 -0.009,2.63363 -1.97765,4.76026 -4.39608,4.74997 H 44.644968 c -2.4279,-1e-5 -4.39609,-2.14332 -4.39609,-4.78724 0.009,-2.63362 1.97765,-4.76024 4.39609,-4.74995 z m 3.23472,-0.0548 h 74.752972 c 2.42789,0 4.39609,2.14332 4.39609,4.78723 -0.009,2.63362 -1.97765,4.76024 -4.39609,4.74995 H 47.879688 c -2.4279,0 -4.39609,-2.14331 -4.39609,-4.78722 0.009,-2.63363 1.97765,-4.76025 4.39609,-4.74996 z"
           style="display:none;fill:#5ed9fa;fill-opacity:0.511609;stroke:url(#linearGradient52);stroke-width:0.713394;stroke-linecap:butt;stroke-miterlimit:3.9;stroke-dasharray:none;stroke-opacity:1;paint-order:fill markers stroke"
           sodipodi:nodetypes="cccccccccccscc"
           inkscape:label="rect_trans" /><path
           id="path17"
           d="m 57.869066,77.725852 h 74.752984 c 2.42788,3e-6 4.39608,2.138131 4.39608,4.775641 -0.009,2.627248 -1.97765,4.748731 -4.39608,4.738464 H 57.869066 c -2.4279,-1.1e-5 -4.39609,-2.138134 -4.39609,-4.775648 0.009,-2.627246 1.97765,-4.748723 4.39609,-4.738457 z m 3.23472,-0.0546 h 74.752974 c 2.42789,3e-6 4.39609,2.138131 4.39609,4.775649 -0.009,2.62724 -1.97765,4.748724 -4.39609,4.738456 H 61.103786 c -2.4279,0 -4.39609,-2.138134 -4.39609,-4.775649 0.009,-2.627243 1.97765,-4.748722 4.39609,-4.738456 z"
           style="display:none;fill:#75f1fb;fill-opacity:0.569609;stroke:url(#linearGradient53);stroke-width:0.713394;stroke-linecap:butt;stroke-miterlimit:3.9;stroke-dasharray:none;stroke-opacity:1;paint-order:fill markers stroke"
           sodipodi:nodetypes="cccccccccccscc"
           inkscape:label="rect_trans" /><path
           id="path18"
           d="m 128.79287,28.568542 h 26.4061 c 2.42789,3e-6 4.39609,2.247328 4.39609,5.019543 -0.009,2.761422 -1.97765,4.991248 -4.39609,4.980457 h -26.4061 c -2.4279,-3e-6 -4.39609,-2.247329 -4.39609,-5.019545 0.009,-2.761421 1.97765,-4.991246 4.39609,-4.980455 z"
           style="display:none;fill:#02215b;fill-opacity:1;stroke-width:0.713394;stroke-dasharray:none;paint-order:fill markers stroke"
           sodipodi:nodetypes="ccccccc" /><path
           id="path19"
           d="m 91.019033,52.988922 h 67.818847 c 2.42789,3e-6 1.09455,2.247328 1.09455,5.019543 -0.009,2.761422 2.03134,4.991248 -0.3871,4.980457 H 91.019033 c -2.4279,-3e-6 -4.39609,-2.247329 -4.39609,-5.019545 0.009,-2.761421 1.97765,-4.991246 4.39609,-4.980455 z"
           style="display:none;fill:#02215b;fill-opacity:1;stroke-width:0.713394;stroke-dasharray:none;paint-order:fill markers stroke"
           sodipodi:nodetypes="ccccccc" /><path
           id="path20"
           d="m 114.51912,77.408922 h 40.24208 c 2.42789,3e-6 2.21375,2.247328 2.21375,5.019545 -0.009,2.76142 -1.97765,4.99125 -4.39609,4.98045 h -38.05974 c -2.4279,0 -4.39609,-2.24732 -4.39609,-5.01954 0.009,-2.761421 1.97765,-4.991246 4.39609,-4.980455 z"
           style="font-variation-settings:normal;display:none;opacity:1;fill:url(#linearGradient5);fill-opacity:1;stroke:none;stroke-width:0.713394;stroke-linecap:butt;stroke-linejoin:miter;stroke-miterlimit:4;stroke-dasharray:none;stroke-dashoffset:0;stroke-opacity:1;paint-order:fill markers stroke;stop-color:#000000;stop-opacity:1"
           sodipodi:nodetypes="ccccccc" /><path
           id="path23"
           d="m 94.413874,101.82892 h 46.256206 c 2.42789,1e-5 1.66386,2.24734 1.66386,5.01955 -0.009,2.76142 -1.97765,4.99125 -4.39609,4.98045 H 94.413874 c -2.427897,0 -4.396087,-2.24732 -4.396087,-5.01954 0.009,-2.76142 1.97765,-4.99125 4.396087,-4.98046 z"
           style="font-variation-settings:normal;display:none;opacity:1;fill:url(#linearGradient6);fill-opacity:1;stroke:none;stroke-width:0.713394;stroke-linecap:butt;stroke-linejoin:miter;stroke-miterlimit:4;stroke-dasharray:none;stroke-dashoffset:0;stroke-opacity:1;paint-order:fill markers stroke;stop-color:#000000;stop-opacity:1"
           sodipodi:nodetypes="ccccccc" /><path
           id="path28"
           d="m 12.303161,77.408922 h 65.392695 c 2.42789,3e-6 4.39609,2.247328 4.39609,5.019545 -0.009,2.76142 -1.97765,4.99125 -4.39609,4.98045 H 14.690403 c -2.4279,0 -4.39609,-2.24732 -4.39609,-5.01954 0.009,-2.761421 -0.4095918,-4.991246 2.008848,-4.980455 z"
           style="font-variation-settings:normal;display:none;opacity:1;fill:url(#linearGradient92);fill-opacity:1;stroke:none;stroke-width:0.713394;stroke-linecap:butt;stroke-linejoin:miter;stroke-miterlimit:4;stroke-dasharray:none;stroke-dashoffset:0;stroke-opacity:1;paint-order:fill markers stroke;stop-color:#000000;stop-opacity:1"
           sodipodi:nodetypes="ccccccc" /><path
           id="path29"
           d="m 24.778361,101.82892 h 37.44107 c 2.42789,0 4.39609,2.24733 4.39609,5.01954 -0.009,2.76142 -1.97765,4.99125 -4.39609,4.98045 H 28.986223 c -2.4279,0 -4.39609,-2.24732 -4.39609,-5.01954 0.009,-2.76142 -2.230212,-4.99124 0.188228,-4.98045 z"
           style="display:none;fill:url(#linearGradient85);fill-opacity:1;stroke:none;stroke-width:0.713394;stroke-dasharray:none;paint-order:fill markers stroke"
           sodipodi:nodetypes="ccccccc" /><path
           id="path30"
           d="m 10.442617,52.988922 h 23.624227 c 2.42789,3e-6 4.39609,2.247328 4.39609,5.019543 -0.009,2.761422 -1.97765,4.991248 -4.39609,4.980457 H 10.442617 c -2.4279003,-3e-6 -4.3960903,-2.247329 -4.3960903,-5.019545 0.009,-2.761421 1.97765,-4.991246 4.3960903,-4.980455 z"
           style="display:none;fill:#02215b;fill-opacity:1;stroke-width:0.713394;stroke-dasharray:none;paint-order:fill markers stroke"
           sodipodi:nodetypes="ccccccc" /><path
           id="path32"
           d="m 10.193116,28.568922 h 43.571143 c 2.42789,3e-6 4.39609,2.247328 4.39609,5.019543 -0.009,2.761422 -1.97765,4.991248 -4.39609,4.980457 H 10.193116 c -2.4279,-3e-6 -4.39609,-2.247329 -4.39609,-5.019545 0.009,-2.761421 1.97765,-4.991246 4.39609,-4.980455 z"
           style="display:none;fill:#02215b;fill-opacity:1;stroke-width:0.713394;stroke-dasharray:none;paint-order:fill markers stroke"
           sodipodi:nodetypes="ccccccc" /><path
           id="path33"
           d="m 95.028095,2.9182122 h 45.231625 c 3.32617,3e-6 6.02255,2.247328 6.02255,5.0195426 -0.0123,2.7614222 1.86599,4.9184982 -1.44723,4.9077072 -0.88324,0 -37.74831,0.07275 -49.806945,0.07275 -3.32617,-3e-6 -6.022559,-2.247329 -6.022559,-5.0195452 0.01233,-2.7614206 2.709349,-4.9912456 6.022559,-4.9804546 z"
           style="display:none;fill:#02215b;fill-opacity:1;stroke-width:0.713394;stroke-dasharray:none;paint-order:fill markers stroke"
           sodipodi:nodetypes="ccccccc" /></g><g
         id="g21"
         transform="matrix(3.5669686,0,0,3.5669686,-0.35669686,-0.356697)"><path
           id="path1"
           style="fill:none;stroke:#022866;stroke-width:2.46834;stroke-dasharray:none;stroke-opacity:1;paint-order:fill markers stroke"
           d="M 32.360684,23.229 A 9.1316816,9.1316816 0 0 1 23.229,32.360683 9.1316816,9.1316816 0 0 1 14.097317,23.229 9.1316816,9.1316816 0 0 1 23.229,14.097317 9.1316816,9.1316816 0 0 1 32.360684,23.229 Z" /><path
           style="fill:none;fill-opacity:1;stroke:#022866;stroke-width:1.1;stroke-dasharray:none;stroke-opacity:1;paint-order:fill markers stroke"
           d="m 28.212278,23.229 h 9.883145"
           id="path21" /><path
           style="fill:none;fill-opacity:1;stroke:#022866;stroke-width:1.1;stroke-dasharray:none;stroke-opacity:1;paint-order:fill markers stroke"
           d="M 23.279,8.3412405 V 18.224385"
           id="path21-2" /><path
           style="fill:none;fill-opacity:1;stroke:#022866;stroke-width:1.1;stroke-dasharray:none;stroke-opacity:1;paint-order:fill markers stroke"
           d="m 23.279,28.044693 v 9.883144"
           id="path21-2-7" /><path
           style="fill:none;fill-opacity:1;stroke:#022866;stroke-width:1.1;stroke-dasharray:none;stroke-opacity:1;paint-order:fill markers stroke"
           d="M 8.2860685,23.229 H 18.169213"
           id="path21-5"
           inkscape:label="path21-5" /></g><path
         d="M 82.499513,-0.00155841 C 36.936255,-0.00148874 -0.00202128,36.936789 -0.00209095,82.500045 -0.00202128,128.0633 36.936255,165.00158 82.499513,165.00165 c 45.563247,-7e-5 82.501537,-36.93835 82.501607,-82.501605 -7e-5,-45.563256 -36.93836,-82.50153374 -82.501607,-82.50160341 z m 3.09e-4,20.81482041 c 36.190558,-6.6e-5 60.907428,25.448924 60.907608,61.639479 7e-5,36.190739 -24.71688,60.907669 -60.907608,60.907609 C 46.309268,143.36017 21.596926,118.6433 21.596993,82.452741 21.59718,46.262365 46.309447,20.813449 82.499822,20.813262 Z"
         style="fill:url(#linearGradient23);stroke:url(#radialGradient58);stroke-width:2.73871;stroke-dasharray:none"
         id="path34"
         sodipodi:nodetypes="ssssssssss"
         inkscape:label="outer_ring" /></g><text
       xml:space="preserve"
       style="font-style:normal;font-variant:normal;font-weight:normal;font-stretch:normal;font-size:77.611px;font-family:Roboto;-inkscape-font-specification:Roboto;fill:none;fill-opacity:1;stroke:#022866;stroke-width:2.149;stroke-dasharray:none;stroke-opacity:1;paint-order:fill markers stroke"
       x="52.170296"
       y="8.3174343"
       id="text21"><tspan
         sodipodi:role="line"
         id="tspan21"
         style="stroke-width:2.149"
         x="52.170296"
         y="8.3174343" /></text><text
       xml:space="preserve"
       style="font-style:normal;font-variant:normal;font-weight:normal;font-stretch:normal;font-size:77.611px;font-family:Roboto;-inkscape-font-specification:Roboto;fill:none;fill-opacity:1;stroke:#022866;stroke-width:2.149;stroke-dasharray:none;stroke-opacity:1;paint-order:fill markers stroke"
       x="130.1515"
       y="5.0544877"
       id="text22"><tspan
         sodipodi:role="line"
         id="tspan22"
         style="stroke-width:2.149"
         x="130.1515"
         y="5.0544877" /></text><text
       xml:space="preserve"
       style="font-style:normal;font-variant:normal;font-weight:normal;font-stretch:normal;font-size:77.611px;font-family:Roboto;-inkscape-font-specification:Roboto;fill:none;fill-opacity:1;stroke:#022866;stroke-width:2.149;stroke-dasharray:none;stroke-opacity:1;paint-order:fill markers stroke"
       x="134.35918"
       y="15.958199"
       id="text23"><tspan
         sodipodi:role="line"
         id="tspan23"
         style="stroke-width:2.149"
         x="134.35918"
         y="15.958199" /></text><text
       xml:space="preserve"
       style="font-style:normal;font-variant:normal;font-weight:normal;font-stretch:normal;font-size:77.611px;font-family:Roboto;-inkscape-font-specification:Roboto;fill:none;fill-opacity:1;stroke:#022866;stroke-width:2.149;stroke-dasharray:none;stroke-opacity:1;paint-order:fill markers stroke"
       x="122.32974"
       y="-13.1717"
       id="text24"><tspan
         sodipodi:role="line"
         id="tspan24"
         style="stroke-width:2.149"
         x="122.32974"
         y="-13.1717" /></text><text
       xml:space="preserve"
       style="font-style:normal;font-variant:normal;font-weight:normal;font-stretch:normal;font-size:77.611px;font-family:Roboto;-inkscape-font-specification:Roboto;fill:none;fill-opacity:1;stroke:#022866;stroke-width:2.149;stroke-dasharray:none;stroke-opacity:1;paint-order:fill markers stroke"
       x="36.462402"
       y="43.963863"
       id="text25"><tspan
         sodipodi:role="line"
         id="tspan25"
         style="stroke-width:2.149"
         x="36.462402"
         y="43.963863" /></text><text
       xml:space="preserve"
       style="font-style:normal;font-variant:normal;font-weight:normal;font-stretch:normal;font-size:77.611px;font-family:Roboto;-inkscape-font-specification:Roboto;fill:none;fill-opacity:1;stroke:#022866;stroke-width:2.149;stroke-dasharray:none;stroke-opacity:1;paint-order:fill markers stroke"
       x="112.55769"
       y="22.441254"
       id="text26"><tspan
         sodipodi:role="line"
         id="tspan26"
         style="stroke-width:2.149"
         x="112.55769"
         y="22.441254" /></text></g></svg>
